<?xml version="1.0" encoding="UTF-8" standalone="no"?>
<!-- Created with Inkscape (http://www.inkscape.org/) -->

<svg
   width="16mm"
   height="16mm"
   viewBox="0 0 16 16"
   version="1.1"
   id="svg1"
   inkscape:version="1.4 (86a8ad7, 2024-10-11)"
   sodipodi:docname="3d.svg"
   xmlns:inkscape="http://www.inkscape.org/namespaces/inkscape"
   xmlns:sodipodi="http://sodipodi.sourceforge.net/DTD/sodipodi-0.dtd"
   xmlns="http://www.w3.org/2000/svg"
   xmlns:svg="http://www.w3.org/2000/svg"
   xmlns:rdf="http://www.w3.org/1999/02/22-rdf-syntax-ns#"
   xmlns:cc="http://creativecommons.org/ns#"
   xmlns:dc="http://purl.org/dc/elements/1.1/">
  <title
     id="title1">Icon</title>
  <sodipodi:namedview
     id="namedview1"
     pagecolor="#ffffff"
     bordercolor="#666666"
     borderopacity="1.0"
     inkscape:showpageshadow="2"
     inkscape:pageopacity="0.0"
     inkscape:pagecheckerboard="0"
     inkscape:deskcolor="#d1d1d1"
     inkscape:document-units="mm"
     showgrid="true"
     inkscape:zoom="7.6296899"
     inkscape:cx="15.990165"
     inkscape:cy="37.026407"
     inkscape:window-width="1280"
     inkscape:window-height="1001"
     inkscape:window-x="-8"
     inkscape:window-y="-8"
     inkscape:window-maximized="1"
     inkscape:current-layer="layer1">
    <inkscape:grid
       id="grid1"
       units="mm"
       originx="0"
       originy="0"
       spacingx="0.99999994"
       spacingy="0.99999994"
       empcolor="#3f3fff"
       empopacity="0.25098039"
       color="#3f3fff"
       opacity="0.1254902"
       empspacing="5"
       enabled="true"
       visible="true" />
  </sodipodi:namedview>
  <defs
     id="defs1" />
  <g
     inkscape:label="Layer 1"
     inkscape:groupmode="layer"
     id="layer1">
    <path
       d="M 7.3000011,14.807501 2.4000001,11.990002 Q 2.0675001,11.7975 1.8837501,11.482501 1.7,11.167501 1.7,10.7825 v -5.565 q 0,-0.3850006 0.1837498,-0.7000004 0.1837498,-0.3150002 0.5162501,-0.5075 L 7.3000011,1.1924991 Q 7.632501,1 8.0000011,1 8.3675012,1 8.7000017,1.1924991 l 4.9000003,2.8175005 q 0.332499,0.192499 0.51625,0.5075 0.18375,0.3149998 0.18375,0.7000004 v 5.565 q 0,0.385001 -0.18375,0.700001 -0.18375,0.314999 -0.51625,0.507501 L 8.7000017,14.807501 Q 8.3675012,15 8.0000011,15 q -0.3675001,0 -0.7,-0.192499 z m 0,-6.405001 v 4.795001 l 0.7,0.4025 0.7000006,-0.4025 V 8.4025 L 12.900001,5.97 V 5.235 L 12.147501,4.7974993 8.0000011,7.195 3.8525003,4.7974993 3.1000003,5.235 V 5.97 Z"
       id="path1"
       style="fill:#bca26c;fill-opacity:1;stroke-width:0.0175" />
    <path
       d="M 7.3000011,14.807501 2.4000001,11.990002 Q 2.0675001,11.7975 1.8837501,11.482501 1.7,11.167501 1.7,10.7825 v -5.565 q 0,-0.3850006 0.1837498,-0.7000004 0.1837498,-0.3150002 0.5162501,-0.5075 L 7.3000011,1.1924991 Q 7.632501,1 8.0000011,1 8.3675012,1 8.7000017,1.1924991 l 4.9000003,2.8175005 q 0.332499,0.192499 0.51625,0.5075 0.18375,0.3149998 0.18375,0.7000004 v 5.565 q 0,0.385001 -0.18375,0.700001 -0.18375,0.314999 -0.51625,0.507501 L 8.7000017,14.807501 Q 8.3675012,15 8.0000011,15 q -0.3675001,0 -0.7,-0.192499 z m 0,-6.405001 v 4.795001 l 0.7,0.4025 0.7000006,-0.4025 V 8.4025 L 12.900001,5.97 V 5.235 L 12.147501,4.7974993 8.0000011,7.195 3.8525003,4.7974993 3.1000003,5.235 V 5.97 Z"
       id="path2"
       style="fill:#bca26c;fill-opacity:1;stroke-width:0.0175" />
  </g>
  <metadata
     id="metadata1">
    <rdf:RDF>
      <cc:Work
         rdf:about="">
        <dc:creator>
          <cc:Agent>
            <dc:title>Google LLC</dc:title>
          </cc:Agent>
        </dc:creator>
        <dc:rights>
          <cc:Agent>
            <dc:title>Google LLC</dc:title>
          </cc:Agent>
        </dc:rights>
        <dc:publisher>
          <cc:Agent>
            <dc:title>Google LLC</dc:title>
          </cc:Agent>
        </dc:publisher>
        <dc:title>Icon</dc:title>
        <dc:date>2024-12-23</dc:date>
        <dc:language>en-US</dc:language>
        <dc:description>Icon</dc:description>
        <dc:contributor>
          <cc:Agent>
            <dc:title>Agroqirax</dc:title>
          </cc:Agent>
        </dc:contributor>
        <cc:license
           rdf:resource="https://github.com/Agroqirax/timberborn-modding-vsce/blob/main/LICENSE.md" />
        <dc:source>https://github.com/google/material-design-icons/blob/master/LICENSE</dc:source>
        <dc:subject>
          <rdf:Bag>
            <rdf:li>Icon</rdf:li>
          </rdf:Bag>
        </dc:subject>
      </cc:Work>
    </rdf:RDF>
  </metadata>
</svg>
