<?xml version="1.0" encoding="UTF-8" standalone="no"?>
<!-- Created with Inkscape (http://www.inkscape.org/) -->

<svg
   width="16mm"
   height="16mm"
   viewBox="0 0 16 16"
   version="1.1"
   id="svg1"
   inkscape:version="1.4 (86a8ad7, 2024-10-11)"
   sodipodi:docname="config.svg"
   xmlns:inkscape="http://www.inkscape.org/namespaces/inkscape"
   xmlns:sodipodi="http://sodipodi.sourceforge.net/DTD/sodipodi-0.dtd"
   xmlns="http://www.w3.org/2000/svg"
   xmlns:svg="http://www.w3.org/2000/svg"
   xmlns:rdf="http://www.w3.org/1999/02/22-rdf-syntax-ns#"
   xmlns:cc="http://creativecommons.org/ns#"
   xmlns:dc="http://purl.org/dc/elements/1.1/">
  <title
     id="title1">Icon</title>
  <sodipodi:namedview
     id="namedview1"
     pagecolor="#ffffff"
     bordercolor="#666666"
     borderopacity="1.0"
     inkscape:showpageshadow="2"
     inkscape:pageopacity="0.0"
     inkscape:pagecheckerboard="0"
     inkscape:deskcolor="#d1d1d1"
     inkscape:document-units="mm"
     showgrid="true"
     inkscape:zoom="7.6296899"
     inkscape:cx="15.990165"
     inkscape:cy="36.895339"
     inkscape:window-width="1280"
     inkscape:window-height="1001"
     inkscape:window-x="-8"
     inkscape:window-y="-8"
     inkscape:window-maximized="1"
     inkscape:current-layer="layer1">
    <inkscape:grid
       id="grid1"
       units="mm"
       originx="0"
       originy="0"
       spacingx="0.99999994"
       spacingy="0.99999994"
       empcolor="#3f3fff"
       empopacity="0.25098039"
       color="#3f3fff"
       opacity="0.1254902"
       empspacing="5"
       enabled="true"
       visible="true" />
  </sodipodi:namedview>
  <defs
     id="defs1" />
  <g
     inkscape:label="Layer 1"
     inkscape:groupmode="layer"
     id="layer1">
    <path
       d="M 6.084578,14.93035 5.80597,12.701493 Q 5.579602,12.614428 5.379354,12.492538 5.179105,12.370647 4.987563,12.231344 L 2.915423,13.10199 1,9.7935324 2.7935326,8.4353244 q -0.017401,-0.121891 -0.017401,-0.235076 v -0.470148 q 0,-0.113185 0.017401,-0.235076 L 1,6.1368162 2.915423,2.8283583 4.987563,3.6990051 Q 5.179104,3.5597007 5.38806,3.4378103 5.597015,3.3159199 5.80597,3.228855 L 6.084578,1 h 3.830846 l 0.278606,2.2288558 q 0.226369,0.087065 0.426616,0.2089553 0.200255,0.1218904 0.391794,0.2611948 L 13.084579,2.8283591 15,6.136817 13.20647,7.4950264 q 0.01737,0.12189 0.01737,0.235075 v 0.470149 q 0,0.113184 -0.03483,0.235075 l 1.793533,1.358209 -1.915423,3.3084576 -2.054726,-0.870647 q -0.191541,0.139304 -0.400499,0.261195 -0.208969,0.12189 -0.417911,0.208955 l -0.278606,2.228857 z m 1.950249,-4.527365 q 1.00995,0 1.72388,-0.7139296 0.713932,-0.713931 0.713932,-1.723881 0,-1.00995 -0.713932,-1.72388 -0.71393,-0.7139309 -1.72388,-0.7139309 -1.027364,0 -1.732588,0.7139309 -0.705224,0.71393 -0.705224,1.72388 0,1.00995 0.705224,1.723881 0.705224,0.7139296 1.732588,0.7139296 z"
       id="path1"
       style="stroke-width:0.0174129;fill:#bca26c;fill-opacity:1" />
  </g>
  <metadata
     id="metadata1">
    <rdf:RDF>
      <cc:Work
         rdf:about="">
        <dc:creator>
          <cc:Agent>
            <dc:title>Google LLC</dc:title>
          </cc:Agent>
        </dc:creator>
        <dc:rights>
          <cc:Agent>
            <dc:title>Google LLC</dc:title>
          </cc:Agent>
        </dc:rights>
        <dc:publisher>
          <cc:Agent>
            <dc:title>Google LLC</dc:title>
          </cc:Agent>
        </dc:publisher>
        <dc:title>Icon</dc:title>
        <dc:date>2024-12-23</dc:date>
        <dc:language>en-US</dc:language>
        <dc:description>Icon</dc:description>
        <dc:contributor>
          <cc:Agent>
            <dc:title>Agroqirax</dc:title>
          </cc:Agent>
        </dc:contributor>
        <cc:license
           rdf:resource="https://github.com/Agroqirax/timberborn-modding-vsce/blob/main/LICENSE.md" />
        <dc:source>https://github.com/google/material-design-icons/blob/master/LICENSE</dc:source>
        <dc:subject>
          <rdf:Bag>
            <rdf:li>Icon</rdf:li>
          </rdf:Bag>
        </dc:subject>
      </cc:Work>
    </rdf:RDF>
  </metadata>
</svg>
