<?xml version="1.0" encoding="UTF-8" standalone="no"?>
<!-- Created with Inkscape (http://www.inkscape.org/) -->

<svg
   width="16mm"
   height="16mm"
   viewBox="0 0 16 16"
   version="1.1"
   id="svg1"
   inkscape:version="1.4 (86a8ad7, 2024-10-11)"
   sodipodi:docname="history.svg"
   xmlns:inkscape="http://www.inkscape.org/namespaces/inkscape"
   xmlns:sodipodi="http://sodipodi.sourceforge.net/DTD/sodipodi-0.dtd"
   xmlns="http://www.w3.org/2000/svg"
   xmlns:svg="http://www.w3.org/2000/svg"
   xmlns:rdf="http://www.w3.org/1999/02/22-rdf-syntax-ns#"
   xmlns:cc="http://creativecommons.org/ns#"
   xmlns:dc="http://purl.org/dc/elements/1.1/">
  <title
     id="title1">Icon</title>
  <sodipodi:namedview
     id="namedview1"
     pagecolor="#ffffff"
     bordercolor="#666666"
     borderopacity="1.0"
     inkscape:showpageshadow="2"
     inkscape:pageopacity="0.0"
     inkscape:pagecheckerboard="0"
     inkscape:deskcolor="#d1d1d1"
     inkscape:document-units="mm"
     showgrid="true"
     inkscape:zoom="10.790011"
     inkscape:cx="23.354934"
     inkscape:cy="25.347518"
     inkscape:window-width="1280"
     inkscape:window-height="1001"
     inkscape:window-x="-8"
     inkscape:window-y="-8"
     inkscape:window-maximized="1"
     inkscape:current-layer="layer1">
    <inkscape:grid
       id="grid1"
       units="mm"
       originx="0"
       originy="0"
       spacingx="0.99999994"
       spacingy="0.99999994"
       empcolor="#3f3fff"
       empopacity="0.25098039"
       color="#3f3fff"
       opacity="0.1254902"
       empspacing="5"
       enabled="true"
       visible="true" />
  </sodipodi:namedview>
  <defs
     id="defs1" />
  <g
     inkscape:label="Layer 1"
     inkscape:groupmode="layer"
     id="layer1">
    <path
       d="M 7.9999997,15 Q 5.3166667,15 3.323611,13.220833 1.3305557,11.441667 1.038889,8.7777776 H 2.6333332 Q 2.9055551,10.8 4.4319447,12.122222 q 1.526389,1.322222 3.568055,1.322222 2.2750003,0 3.8597223,-1.584722 1.584721,-1.584722 1.584721,-3.8597221 0,-2.2750001 -1.584721,-3.8597221 Q 10.275,2.5555555 7.9999997,2.5555555 q -1.341666,0 -2.508333,0.6222223 -1.166667,0.6222221 -1.963889,1.711111 h 2.138889 V 6.4444443 H 1 V 1.7777778 H 2.5555555 V 3.6055554 Q 3.5472227,2.3611111 4.9763887,1.6805555 6.4055557,1 7.9999997,1 q 1.458335,0 2.7319463,0.5541666 1.273611,0.5541668 2.216666,1.4972223 0.943055,0.9430554 1.49722,2.2166665 Q 15,6.5416666 15,7.9999999 q 0,1.458333 -0.554168,2.7319441 -0.554165,1.273611 -1.49722,2.216667 -0.943055,0.943055 -2.216666,1.497222 Q 9.4583347,15 7.9999997,15 Z M 10.177778,11.266666 7.2222217,8.311111 v -4.2 h 1.555555 v 3.5777777 l 2.4888913,2.4888893 z"
       id="path1"
       style="fill:#bca26c;fill-opacity:1;stroke-width:0.0194444" />
  </g>
  <metadata
     id="metadata1">
    <rdf:RDF>
      <cc:Work
         rdf:about="">
        <dc:creator>
          <cc:Agent>
            <dc:title>Google LLC</dc:title>
          </cc:Agent>
        </dc:creator>
        <dc:rights>
          <cc:Agent>
            <dc:title>Google LLC</dc:title>
          </cc:Agent>
        </dc:rights>
        <dc:publisher>
          <cc:Agent>
            <dc:title>Google LLC</dc:title>
          </cc:Agent>
        </dc:publisher>
        <dc:title>Icon</dc:title>
        <dc:date>2024-12-23</dc:date>
        <dc:language>en-US</dc:language>
        <dc:description>Icon</dc:description>
        <dc:contributor>
          <cc:Agent>
            <dc:title>Agroqirax</dc:title>
          </cc:Agent>
        </dc:contributor>
        <cc:license
           rdf:resource="https://github.com/Agroqirax/timberborn-modding-vsce/blob/main/LICENSE.md" />
        <dc:source>https://github.com/google/material-design-icons/blob/master/LICENSE</dc:source>
        <dc:subject>
          <rdf:Bag>
            <rdf:li>Icon</rdf:li>
          </rdf:Bag>
        </dc:subject>
      </cc:Work>
    </rdf:RDF>
  </metadata>
</svg>
