<?xml version="1.0" encoding="UTF-8" standalone="no"?>
<!-- Created with Inkscape (http://www.inkscape.org/) -->

<svg
   width="16mm"
   height="16mm"
   viewBox="0 0 16 16"
   version="1.1"
   id="svg1"
   inkscape:version="1.4 (86a8ad7, 2024-10-11)"
   sodipodi:docname="license.svg"
   xmlns:inkscape="http://www.inkscape.org/namespaces/inkscape"
   xmlns:sodipodi="http://sodipodi.sourceforge.net/DTD/sodipodi-0.dtd"
   xmlns="http://www.w3.org/2000/svg"
   xmlns:svg="http://www.w3.org/2000/svg"
   xmlns:rdf="http://www.w3.org/1999/02/22-rdf-syntax-ns#"
   xmlns:cc="http://creativecommons.org/ns#"
   xmlns:dc="http://purl.org/dc/elements/1.1/">
  <title
     id="title1">Icon</title>
  <sodipodi:namedview
     id="namedview1"
     pagecolor="#ffffff"
     bordercolor="#666666"
     borderopacity="1.0"
     inkscape:showpageshadow="2"
     inkscape:pageopacity="0.0"
     inkscape:pagecheckerboard="0"
     inkscape:deskcolor="#d1d1d1"
     inkscape:document-units="mm"
     showgrid="true"
     inkscape:zoom="5.3950055"
     inkscape:cx="11.677467"
     inkscape:cy="44.207555"
     inkscape:window-width="1280"
     inkscape:window-height="1001"
     inkscape:window-x="-8"
     inkscape:window-y="-8"
     inkscape:window-maximized="1"
     inkscape:current-layer="layer1">
    <inkscape:grid
       id="grid1"
       units="mm"
       originx="0"
       originy="0"
       spacingx="0.99999994"
       spacingy="0.99999994"
       empcolor="#3f3fff"
       empopacity="0.25098039"
       color="#3f3fff"
       opacity="0.1254902"
       empspacing="5"
       enabled="true"
       visible="true" />
  </sodipodi:namedview>
  <defs
     id="defs1" />
  <g
     inkscape:label="Layer 1"
     inkscape:groupmode="layer"
     id="layer1">
    <path
       d="M 7.9998318,8.3333333 Q 7.1664985,8.3333333 6.5831659,7.75 5.9998333,7.1666667 5.9998333,6.3333333 5.9998333,5.5 6.5831659,4.9166667 7.1664985,4.3333333 7.9998318,4.3333333 q 0.8333334,0 1.4166659,0.5833334 Q 9.9998328,5.5 9.9998328,6.3333333 9.9998328,7.1666667 9.4164977,7.75 8.8331652,8.3333333 7.9998318,8.3333333 Z M 3.9998323,15 V 9.8500001 Q 3.3664991,9.1499999 3.0164995,8.25 2.6665,7.3500001 2.6665,6.3333333 2.6665,4.1000001 4.2164976,2.5499999 5.7664978,1 7.9998318,1 q 2.2333342,0 3.7833342,1.5499999 1.55,1.5500002 1.55,3.7833334 0,1.0166668 -0.349999,1.9166667 -0.350002,0.8999999 -0.983336,1.6000001 V 15 L 7.9998318,13.666667 Z m 3.9999995,-4.666667 q 1.6666667,0 2.8333342,-1.1666663 Q 11.999831,8 11.999831,6.3333333 11.999831,4.6666667 10.833166,3.5 9.6664985,2.3333333 7.9998318,2.3333333 6.3331652,2.3333333 5.1665,3.5 3.9998323,4.6666667 3.9998323,6.3333333 3.9998323,8 5.1665,9.1666667 6.3331652,10.333333 7.9998318,10.333333 Z"
       id="path1"
       style="fill:#bca26c;fill-opacity:1;stroke-width:0.0166667" />
  </g>
  <metadata
     id="metadata1">
    <rdf:RDF>
      <cc:Work
         rdf:about="">
        <dc:creator>
          <cc:Agent>
            <dc:title>Google LLC</dc:title>
          </cc:Agent>
        </dc:creator>
        <dc:rights>
          <cc:Agent>
            <dc:title>Google LLC</dc:title>
          </cc:Agent>
        </dc:rights>
        <dc:publisher>
          <cc:Agent>
            <dc:title>Google LLC</dc:title>
          </cc:Agent>
        </dc:publisher>
        <dc:title>Icon</dc:title>
        <dc:date>2024-12-23</dc:date>
        <dc:language>en-US</dc:language>
        <dc:description>Icon</dc:description>
        <dc:contributor>
          <cc:Agent>
            <dc:title>Agroqirax</dc:title>
          </cc:Agent>
        </dc:contributor>
        <cc:license
           rdf:resource="https://github.com/Agroqirax/timberborn-modding-vsce/blob/main/LICENSE.md" />
        <dc:source>https://github.com/google/material-design-icons/blob/master/LICENSE</dc:source>
        <dc:subject>
          <rdf:Bag>
            <rdf:li>Icon</rdf:li>
          </rdf:Bag>
        </dc:subject>
      </cc:Work>
    </rdf:RDF>
  </metadata>
</svg>
